<svg width="421" height="281" viewBox="0 0 421 281" fill="none" xmlns="http://www.w3.org/2000/svg">
<ellipse opacity="0.1" cx="210.5" cy="140.5" rx="210.5" ry="140.5" fill="url(#paint0_radial_204_35)"/>
<path fill-rule="evenodd" clip-rule="evenodd" d="M48.7199 146.449L59.8953 135.274L82.2462 157.624L104.597 135.274L115.773 146.449L82.2461 179.975L71.0706 168.8L48.7198 146.449L48.7199 146.449ZM76.6158 140.904L65.4404 129.728L87.7913 107.377C91.5166 103.652 95.2417 99.9273 98.9669 96.2021L132.493 129.728L121.318 140.904L98.9669 118.553L76.6158 140.904V140.904Z" fill="url(#paint1_linear_204_35)"/>
<path fill-rule="evenodd" clip-rule="evenodd" d="M357.515 145.727C357.515 143.815 358.967 142.363 360.879 142.363C362.65 142.363 364.137 143.826 364.137 145.727C364.137 147.491 362.669 148.984 360.773 148.984C359.015 148.984 357.515 147.486 357.515 145.727ZM360.773 141.513C360.608 141.551 359.951 141.442 359.061 141.89C358.094 142.378 357.475 142.975 356.996 144.003C356.408 145.264 356.591 146.984 357.419 148.089C357.693 148.456 357.596 148.339 357.914 148.657C358.915 149.659 360.384 150.072 361.808 149.736C363.668 149.295 365.098 147.505 364.995 145.609C364.928 144.374 364.598 143.55 363.739 142.69C363.192 142.143 362.479 141.748 361.691 141.586L360.865 141.495C360.744 141.494 360.8 141.506 360.773 141.513H360.773Z" fill="black"/>
<path fill-rule="evenodd" clip-rule="evenodd" d="M360.384 145.337H360.136V144.239C360.913 144.239 361.234 144.134 361.234 144.841C361.234 145.297 360.836 145.337 360.384 145.337H360.384ZM359.003 147.78H360.136V146.116C360.812 146.116 360.926 146.135 361.245 146.777C361.357 147.002 361.683 147.582 361.729 147.78H362.933C362.875 147.531 362.212 146.124 361.867 145.872C361.773 145.803 361.682 145.772 361.623 145.691C361.826 145.644 362.06 145.476 362.176 145.323C362.495 144.901 362.513 144.039 361.95 143.664C361.647 143.463 361.226 143.389 360.844 143.389H359.003V147.78V147.78Z" fill="black"/>
<path fill-rule="evenodd" clip-rule="evenodd" d="M165.092 130.337H173.179L161.936 96.0671H151.877L140.584 130.337H148.721L150.841 123.73H162.971L165.092 130.337H165.092ZM165.141 145.647L157.103 170.155L149.065 145.647H140.486L152.073 179.918H162.232L173.72 145.647H165.141V145.647ZM179.539 169.366H198.375C198.475 168.675 198.573 167.689 198.573 166.407C198.573 159.997 193.543 153.291 185.062 153.291C177.566 153.291 171.551 159.454 171.551 166.949C171.551 174.691 176.975 180.559 185.555 180.559C192.014 180.559 195.269 177.945 197.34 175.234L191.176 171.141C190.141 172.866 188.711 173.853 185.802 173.853C182.695 173.853 180.378 172.275 179.539 169.366V169.366ZM179.441 164.237C180.131 161.082 182.251 159.454 185.259 159.454C188.267 159.454 190.24 161.279 190.93 164.237H179.441H179.441ZM217.31 153.291C214.154 153.291 211.59 154.376 209.815 156.002V153.932H202.074V179.918H210.308V164.73C210.308 162.363 212.33 160.588 214.795 160.588C217.261 160.588 219.184 162.215 219.184 165.027V179.918H227.419V163.399C227.419 157.433 223.424 153.291 217.31 153.291L217.31 153.291ZM244.085 179.918H248.523V172.768H245.811C243.494 172.768 242.162 171.437 242.162 168.922V160.934H248.375V153.932H242.458V147.028H234.47V151.022C234.47 152.945 233.533 153.932 231.709 153.932H229.638V160.934H233.977V169.908C233.977 175.924 237.38 179.918 244.085 179.918L244.085 179.918ZM268.296 153.932V169.069C268.296 171.535 266.621 173.261 264.007 173.261C261.344 173.261 259.766 171.486 259.766 169.069V153.932H251.532V170.155C251.532 176.022 254.884 180.559 261.541 180.559C264.402 180.559 266.965 179.474 268.789 177.748V179.918H276.482V153.932H268.296H268.296ZM288.958 156.15V153.932H281.216V179.918H289.451V166.012C289.451 162.61 291.817 160.983 296.157 160.983V153.291C293.248 153.291 290.733 154.425 288.958 156.15V156.15ZM305.328 169.366H324.165C324.263 168.675 324.362 167.689 324.362 166.407C324.362 159.997 319.333 153.291 310.851 153.291C303.356 153.291 297.34 159.454 297.34 166.949C297.34 174.69 302.764 180.559 311.344 180.559C317.804 180.559 321.058 177.945 323.129 175.234L316.965 171.141C315.93 172.866 314.5 173.852 311.591 173.852C308.484 173.852 306.166 172.275 305.328 169.365L305.328 169.366ZM305.23 164.237C305.92 161.082 308.04 159.454 311.048 159.454C314.056 159.454 316.029 161.279 316.719 164.237H305.23V164.237ZM337.528 180.559C344.382 180.559 348.722 177.304 348.722 171.93C348.722 162.363 335.161 164.73 335.161 161.032C335.161 159.947 335.999 159.306 337.676 159.306C339.401 159.306 340.635 160.145 341.226 161.772L348.031 159.109C346.995 155.46 343.149 153.34 337.824 153.34C331.266 153.34 327.123 156.397 327.123 161.427C327.123 170.351 340.683 168.379 340.683 172.472C340.683 173.656 339.697 174.395 337.824 174.395C335.161 174.395 333.435 173.162 332.745 170.993L325.94 173.606C327.468 178.143 331.66 180.558 337.528 180.558L337.528 180.559ZM152.961 117.024L156.906 104.795L160.801 117.024H152.961ZM175.594 130.337H183.829V94.292H175.594V130.337ZM201.63 130.978C209.963 130.978 215.88 125.11 215.88 117.369C215.88 109.578 209.963 103.759 201.63 103.759C193.346 103.759 187.429 109.578 187.429 117.369C187.429 125.11 193.346 130.978 201.63 130.978ZM201.679 123.681C198.08 123.681 195.712 121.018 195.712 117.369C195.712 113.622 198.08 111.057 201.679 111.057C205.278 111.057 207.596 113.622 207.596 117.32C207.596 121.067 205.23 123.681 201.679 123.681V123.681ZM238.858 104.351V106.718C236.935 104.844 234.322 103.759 231.166 103.759C223.621 103.759 218.395 109.578 218.395 117.369C218.395 125.16 223.819 130.978 231.363 130.978C234.125 130.978 236.442 130.14 238.217 128.711V139.164H246.452V104.351H238.858H238.858ZM232.547 123.73C229.095 123.73 226.58 121.067 226.58 117.369C226.58 113.671 229.046 110.959 232.547 110.959C236.147 110.959 238.562 113.572 238.562 117.369C238.562 121.166 236.147 123.73 232.547 123.73ZM270.515 104.351V107.064C268.69 105.239 266.225 104.252 263.02 104.252C255.476 104.252 250.052 109.578 250.052 117.369C250.052 125.16 255.476 130.978 263.02 130.978C266.225 130.978 268.69 129.894 270.515 127.971V130.337H278.109V104.351H270.515V104.351ZM264.204 123.73C260.703 123.73 258.237 121.067 258.237 117.369C258.237 113.671 260.752 110.959 264.204 110.959C267.803 110.959 270.22 113.572 270.22 117.369C270.22 121.117 267.803 123.73 264.204 123.73Z" fill="black"/>
<defs>
<radialGradient id="paint0_radial_204_35" cx="0" cy="0" r="1" gradientUnits="userSpaceOnUse" gradientTransform="translate(210.5 140.5) rotate(81.8719) scale(141.926 210.279)">
<stop stop-color="#00AFEF"/>
<stop offset="1" stop-color="#00AFEF" stop-opacity="0"/>
</radialGradient>
<linearGradient id="paint1_linear_204_35" x1="90.6059" y1="180.251" x2="90.6059" y2="95.9268" gradientUnits="userSpaceOnUse">
<stop stop-color="#295DB5"/>
<stop offset="1" stop-color="#73F7B1"/>
</linearGradient>
</defs>
</svg>
