<svg width="421" height="281" viewBox="0 0 421 281" fill="none" xmlns="http://www.w3.org/2000/svg">
<ellipse opacity="0.1" cx="210.5" cy="140.5" rx="210.5" ry="140.5" fill="url(#paint0_radial_204_34)"/>
<path d="M131.626 112.139L138.22 156.461H126.429L125.859 148.49H121.726L121.046 156.461H109.127L114.977 112.139H131.626ZM125.534 140.639C124.945 135.623 124.368 129.418 123.779 122.043C122.613 130.52 121.884 136.714 121.594 140.639H125.534V140.639ZM151.702 112.139V147.595H158.703V156.461H140.186V112.139H151.702ZM186.936 138.088C186.936 142.545 186.834 145.697 186.63 147.546C186.415 149.407 185.762 151.098 184.66 152.63C183.558 154.163 182.063 155.34 180.191 156.163C178.311 156.986 176.118 157.393 173.627 157.393C171.257 157.393 169.128 157.005 167.245 156.227C165.346 155.453 163.837 154.295 162.689 152.743C161.542 151.192 160.859 149.501 160.636 147.678C160.421 145.844 160.307 142.651 160.307 138.088V130.509C160.307 126.051 160.413 122.903 160.628 121.042C160.832 119.193 161.485 117.502 162.595 115.97C163.697 114.437 165.18 113.26 167.067 112.437C168.943 111.614 171.125 111.203 173.627 111.203C175.998 111.203 178.123 111.595 180.01 112.369C181.897 113.146 183.418 114.305 184.565 115.856C185.713 117.408 186.396 119.099 186.607 120.922C186.834 122.756 186.936 125.938 186.936 130.509V138.088ZM175.428 123.53C175.428 121.465 175.314 120.148 175.084 119.567C174.861 118.997 174.393 118.706 173.684 118.706C173.076 118.706 172.62 118.94 172.302 119.408C171.974 119.865 171.816 121.239 171.816 123.53V144.221C171.816 146.799 171.929 148.388 172.133 148.988C172.34 149.592 172.835 149.894 173.601 149.894C174.382 149.894 174.877 149.547 175.099 148.856C175.314 148.154 175.428 146.508 175.428 143.892V123.53V123.53ZM217.557 156.461V161.825H208.869C206.77 161.825 205.294 161.666 204.437 161.349C203.577 161.032 202.999 160.556 202.701 159.911C202.399 159.277 202.252 158.126 202.252 156.461C199.636 156.386 197.398 155.706 195.522 154.408C193.647 153.117 192.405 151.464 191.808 149.463C191.201 147.471 190.903 144.481 190.903 140.499V126.783C190.903 123.771 191.08 121.473 191.435 119.895C191.79 118.314 192.526 116.83 193.635 115.437C194.745 114.033 196.175 112.988 197.93 112.267C199.674 111.557 201.618 111.203 203.754 111.203C206.321 111.203 208.616 111.644 210.635 112.52C212.647 113.399 214.153 114.509 215.142 115.856C216.138 117.211 216.783 118.612 217.082 120.061C217.38 121.51 217.531 123.669 217.531 126.538V140.941C217.531 144.885 217.342 147.557 216.961 148.958C216.576 150.369 215.84 151.483 214.757 152.313C213.673 153.143 212.228 153.781 210.427 154.219C210.484 155.201 210.688 155.827 211.043 156.08C211.397 156.333 212.239 156.461 213.571 156.461H217.557V156.461ZM206.023 123.53C206.023 121.465 205.909 120.148 205.679 119.567C205.453 118.997 204.985 118.706 204.279 118.706C203.671 118.706 203.215 118.94 202.894 119.408C202.569 119.865 202.411 121.239 202.411 123.53V144.221C202.411 146.799 202.524 148.388 202.728 148.988C202.932 149.592 203.426 149.894 204.192 149.894C204.977 149.894 205.472 149.547 205.698 148.856C205.909 148.154 206.023 146.508 206.023 143.892V123.53V123.53ZM241.702 112.139L248.292 156.461H236.505L235.935 148.49H231.802L231.119 156.461H219.199L225.053 112.139H241.702ZM235.606 140.639C235.017 135.623 234.44 129.418 233.855 122.043C232.689 130.52 231.96 136.714 231.67 140.639H235.606ZM250.262 112.139H261.751C265.371 112.139 268.126 112.418 269.991 112.988C271.855 113.547 273.369 114.698 274.516 116.419C275.667 118.147 276.234 120.922 276.234 124.753C276.234 127.353 275.834 129.154 275.022 130.173C274.211 131.203 272.614 131.988 270.225 132.528C272.886 133.136 274.686 134.136 275.637 135.528C276.581 136.929 277.056 139.069 277.056 141.949V146.063C277.056 149.052 276.721 151.268 276.03 152.713C275.35 154.155 274.26 155.136 272.765 155.669C271.27 156.201 268.209 156.461 263.582 156.461H250.262V112.139V112.139ZM261.778 119.718V129.576C262.265 129.557 262.646 129.546 262.929 129.546C264.058 129.546 264.775 129.267 265.084 128.716C265.39 128.153 265.548 126.568 265.548 123.941C265.548 122.548 265.416 121.575 265.167 121.027C264.907 120.465 264.578 120.11 264.167 119.971C263.756 119.82 262.955 119.736 261.778 119.718V119.718ZM261.778 136.472V148.875C263.393 148.826 264.427 148.565 264.877 148.108C265.326 147.659 265.548 146.531 265.548 144.742V140.613C265.548 138.714 265.345 137.567 264.941 137.163C264.541 136.763 263.488 136.529 261.778 136.472V136.472ZM301.061 112.139L307.652 156.461H295.864L295.294 148.49H291.161L290.478 156.461H278.559L284.413 112.139H301.061ZM294.966 140.639C294.377 135.623 293.8 129.418 293.215 122.043C292.045 130.52 291.316 136.714 291.029 140.639H294.966ZM335.321 112.139V156.461H325.233L319.243 136.314V156.461H309.622V112.139H319.243L325.701 132.101V112.139H335.321ZM367.373 112.139L360.783 132.147L368 156.461H356.107L351.461 137.461V156.461H339.941V112.139H351.461V129.361L356.567 112.139H367.373Z" fill="#00AFEF"/>
<path fill-rule="evenodd" clip-rule="evenodd" d="M51.53 111.708H96.2676V128.418L73.8969 117.038L51.53 128.418V111.708Z" fill="#4DC8F4"/>
<path fill-rule="evenodd" clip-rule="evenodd" d="M51.53 156.612H96.2676V133.856L73.8969 122.48L51.53 133.856V156.612Z" fill="#0090D2"/>
<defs>
<radialGradient id="paint0_radial_204_34" cx="0" cy="0" r="1" gradientUnits="userSpaceOnUse" gradientTransform="translate(210.5 140.5) rotate(81.8719) scale(141.926 210.279)">
<stop stop-color="#00AFEF"/>
<stop offset="1" stop-color="#00AFEF" stop-opacity="0"/>
</radialGradient>
</defs>
</svg>
