<svg width="388" height="281" viewBox="0 0 388 281" fill="none" xmlns="http://www.w3.org/2000/svg">
<circle opacity="0.2" cx="140.5" cy="140.5" r="140.5" fill="url(#paint0_radial_204_36)"/>
<path d="M191.786 125.624C195.451 131.227 197.163 137.876 196.657 144.544C196.151 151.212 193.456 157.528 188.987 162.52L168.921 148.649L161.993 143.863L190.521 126.406L191.786 125.624Z" fill="url(#paint1_linear_204_36)"/>
<path d="M119.169 103.396L116.77 118.499C115.818 117.453 114.588 116.697 113.222 116.317C111.857 115.938 110.411 115.951 109.052 116.354C107.694 116.758 106.477 117.536 105.544 118.599C104.61 119.661 103.997 120.965 103.776 122.36C103.555 123.754 103.734 125.183 104.294 126.48C104.853 127.777 105.769 128.891 106.937 129.692C108.105 130.493 109.476 130.948 110.893 131.006C112.309 131.064 113.714 130.722 114.943 130.019L107.905 174.295C102.701 171.604 98.2704 169.018 96.4125 167.199L93.2435 164.094C90.3171 161.252 87.9915 157.855 86.4036 154.104C84.8157 150.354 83.9976 146.324 83.9976 142.254C83.9976 138.183 84.8157 134.154 86.4036 130.403C87.9915 126.652 90.3171 123.256 93.2435 120.414L110.585 103.439L119.169 103.396Z" fill="url(#paint2_linear_204_36)"/>
<path d="M119.169 103.396L116.77 118.499C115.818 117.453 114.588 116.697 113.222 116.317C111.857 115.938 110.411 115.951 109.052 116.354C107.694 116.758 106.477 117.536 105.544 118.599C104.61 119.661 103.997 120.965 103.776 122.36C103.555 123.754 103.734 125.183 104.294 126.48C104.853 127.777 105.769 128.891 106.937 129.692C108.105 130.493 109.476 130.948 110.893 131.006C112.309 131.064 113.714 130.722 114.943 130.019L107.905 174.295C102.701 171.604 98.2704 169.018 96.4125 167.199L93.2435 164.094C90.3171 161.252 87.9915 157.855 86.4036 154.104C84.8157 150.354 83.9976 146.324 83.9976 142.254C83.9976 138.183 84.8157 134.154 86.4036 130.403C87.9915 126.652 90.3171 123.256 93.2435 120.414L110.585 103.439L119.169 103.396Z" fill="url(#paint3_linear_204_36)"/>
<path d="M134.104 138.674V184.511L132.793 185.86C128.717 184.129 117.102 179.051 107.905 174.296L114.941 130.015C115.325 129.795 115.69 129.542 116.03 129.258L131.691 135.356C133.086 135.896 134.104 137.22 134.104 138.674Z" fill="url(#paint4_linear_204_36)"/>
<path d="M191.582 125.308L190.521 126.403L168.921 148.649L146.63 171.609V138.674C146.63 137.203 147.647 135.896 149.043 135.356L164.719 129.258C166.069 130.394 167.78 131.014 169.547 131.008C170.995 131.01 172.414 130.596 173.632 129.815C174.85 129.034 175.815 127.919 176.412 126.605C177.009 125.29 177.212 123.832 176.996 122.406C176.78 120.979 176.155 119.645 175.196 118.564C174.237 117.483 172.985 116.701 171.59 116.311C170.195 115.922 168.717 115.943 167.333 116.37C165.949 116.798 164.719 117.614 163.791 118.721C162.862 119.828 162.274 121.179 162.098 122.611L146.843 128.539C144.782 129.343 142.592 129.77 140.379 129.798C138.166 129.762 135.977 129.335 133.914 128.539L118.663 122.605C118.476 121.074 117.814 119.639 116.77 118.5L119.169 103.4L132.575 105.611C131.821 106.875 131.387 108.303 131.313 109.772C131.238 111.24 131.525 112.705 132.147 114.038C132.77 115.371 133.71 116.533 134.885 117.423C136.061 118.312 137.437 118.903 138.893 119.143C140.35 119.384 141.844 119.267 143.245 118.802C144.646 118.337 145.912 117.539 146.933 116.477C147.954 115.415 148.699 114.121 149.104 112.707C149.51 111.293 149.562 109.802 149.258 108.364L180.448 113.509L187.505 120.418C189.029 121.905 190.395 123.543 191.582 125.308V125.308Z" fill="url(#paint5_linear_204_36)"/>
<path d="M134.104 138.674V184.511L132.793 185.86C128.717 184.129 117.102 179.051 107.905 174.296L114.941 130.015C115.325 129.795 115.69 129.542 116.03 129.258L131.691 135.356C133.086 135.896 134.104 137.22 134.104 138.674Z" fill="url(#paint6_linear_204_36)"/>
<path d="M191.582 125.308L190.521 126.403L168.921 148.649L146.63 171.609V138.674C146.63 137.203 147.647 135.896 149.043 135.356L164.719 129.258C166.069 130.394 167.78 131.014 169.547 131.008C170.995 131.01 172.414 130.596 173.632 129.815C174.85 129.034 175.815 127.919 176.412 126.605C177.009 125.29 177.212 123.832 176.996 122.406C176.78 120.979 176.155 119.645 175.196 118.564C174.237 117.483 172.985 116.701 171.59 116.311C170.195 115.922 168.717 115.943 167.333 116.37C165.949 116.798 164.719 117.614 163.791 118.721C162.862 119.828 162.274 121.179 162.098 122.611L146.843 128.539C144.782 129.343 142.592 129.77 140.379 129.798C138.166 129.762 135.977 129.335 133.914 128.539L118.663 122.605C118.476 121.074 117.814 119.639 116.77 118.5L119.169 103.4L132.575 105.611C131.821 106.875 131.387 108.303 131.313 109.772C131.238 111.24 131.525 112.705 132.147 114.038C132.77 115.371 133.71 116.533 134.885 117.423C136.061 118.312 137.437 118.903 138.893 119.143C140.35 119.384 141.844 119.267 143.245 118.802C144.646 118.337 145.912 117.539 146.933 116.477C147.954 115.415 148.699 114.121 149.104 112.707C149.51 111.293 149.562 109.802 149.258 108.364L180.448 113.509L187.505 120.418C189.029 121.905 190.395 123.543 191.582 125.308V125.308Z" fill="url(#paint7_linear_204_36)"/>
<path d="M180.448 113.505L149.258 108.359C148.88 106.58 147.971 104.955 146.651 103.698C145.332 102.441 143.662 101.609 141.86 101.312C140.058 101.015 138.208 101.266 136.551 102.032C134.895 102.798 133.509 104.044 132.575 105.607L119.169 103.395L163.908 97.3164L180.448 113.505Z" fill="url(#paint8_linear_204_36)"/>
<path d="M180.448 113.505L149.258 108.359C148.88 106.58 147.971 104.955 146.651 103.698C145.332 102.441 143.662 101.609 141.86 101.312C140.058 101.015 138.208 101.266 136.551 102.032C134.895 102.798 133.509 104.044 132.575 105.607L119.169 103.395L163.908 97.3164L180.448 113.505Z" fill="url(#paint9_linear_204_36)"/>
<path d="M132.793 185.86L134.104 184.511V186.407C133.868 186.312 133.419 186.126 132.793 185.86Z" fill="url(#paint10_linear_204_36)"/>
<path d="M188.992 162.52C188.514 163.057 188.012 163.582 187.489 164.094L184.321 167.199C178.674 172.725 149.272 185.345 146.63 186.408V171.609L168.921 148.649L190.521 126.406L191.587 125.311C191.658 125.416 191.727 125.52 191.796 125.627C195.46 131.23 197.17 137.878 196.664 144.546C196.157 151.213 193.461 157.529 188.992 162.52V162.52Z" fill="url(#paint11_linear_204_36)"/>
<path d="M132.793 185.86L134.104 184.511V186.407C133.868 186.312 133.419 186.126 132.793 185.86Z" fill="url(#paint12_linear_204_36)"/>
<path d="M188.992 162.52C188.514 163.057 188.012 163.582 187.489 164.094L184.321 167.199C178.674 172.725 149.272 185.345 146.63 186.408V171.609L168.921 148.649L190.521 126.406L191.587 125.311C191.658 125.416 191.727 125.52 191.796 125.627C195.46 131.23 197.17 137.878 196.664 144.546C196.157 151.213 193.461 157.529 188.992 162.52V162.52Z" fill="url(#paint13_linear_204_36)"/>
<path d="M119.169 103.396L110.585 103.439L117.178 96.9849L119.169 103.396Z" fill="url(#paint14_linear_204_36)"/>
<path d="M119.169 103.396L110.585 103.439L117.178 96.9849L119.169 103.396Z" fill="url(#paint15_linear_204_36)"/>
<path d="M163.908 97.3165L119.169 103.396L117.178 96.9848L118.36 95.8289C124.451 89.8786 132.396 86.6739 140.374 86.5928C148.353 86.6739 156.298 89.8786 162.389 95.8289L163.908 97.3165Z" fill="url(#paint16_linear_204_36)"/>
<path d="M163.908 97.3165L119.169 103.396L117.178 96.9848L118.36 95.8289C124.451 89.8786 132.396 86.6739 140.374 86.5928C148.353 86.6739 156.298 89.8786 162.389 95.8289L163.908 97.3165Z" fill="url(#paint17_linear_204_36)"/>
<path d="M292.127 132.521L292.025 132.604L292.007 132.57L292.127 132.521Z" fill="#323232"/>
<path d="M233.539 106.208H228.303V138.739H233.539V106.208Z" fill="#323232"/>
<path d="M247.148 138.739H252.386V110.802L262.038 110.851V106.208H237.562V110.851L247.148 110.802V138.739Z" fill="#323232"/>
<path d="M282.821 127.051H288.534C290.147 127.071 291.75 126.793 293.262 126.234C294.593 125.734 295.811 124.972 296.841 123.995C297.827 123.053 298.604 121.918 299.123 120.66C299.671 119.356 299.945 117.954 299.927 116.54C299.939 115.148 299.683 113.766 299.173 112.469C298.681 111.235 297.938 110.116 296.989 109.183C295.994 108.22 294.809 107.474 293.508 106.993C292.129 106.455 290.57 106.193 288.829 106.193H277.587V138.724H282.823L282.821 127.051ZM282.805 110.852H288.814C290.734 110.852 292.178 111.358 293.18 112.391C294.182 113.424 294.691 114.81 294.691 116.543C294.691 118.373 294.149 119.812 293.048 120.859C291.948 121.905 290.455 122.427 288.517 122.427H282.805V110.852Z" fill="#323232"/>
<path d="M316.704 106.208H311.364L299.445 138.739H304.88L307.69 130.729H320.339L323.186 138.739H328.62L316.704 106.208ZM309.318 126.234L311.746 119.339L313.979 111.624H314.078L316.311 119.339L318.724 126.238L309.318 126.234Z" fill="#323232"/>
<path d="M354.103 122.033C355.4 120.365 356.041 118.42 356.041 116.164C356.054 114.83 355.797 113.506 355.285 112.273C354.784 111.084 354.039 110.011 353.1 109.123C352.079 108.177 350.872 107.453 349.554 106.998C348.018 106.468 346.401 106.208 344.776 106.229H332.809V138.756H338.046V126.315H343.726L350.999 138.756H356.613L348.913 125.531C351.08 124.844 352.803 123.684 354.103 122.033ZM338.049 121.656V110.852H344.794C346.797 110.852 348.291 111.341 349.291 112.307C350.292 113.273 350.801 114.563 350.801 116.164C350.801 117.832 350.276 119.172 349.176 120.169C348.076 121.165 346.582 121.656 344.645 121.656H338.049Z" fill="#323232"/>
<path d="M366.889 106.208H361.653V138.739H366.889V106.208Z" fill="#323232"/>
<path d="M387.688 138.739L373.538 121.461L387.262 106.225H381.253L368.744 120.071V123.063L381.484 138.739H387.688Z" fill="#323232"/>
<path d="M231.668 158.209C229.666 158.062 229.108 157.49 229.108 156.475C229.108 154.923 230.241 154.498 232.046 154.498C232.89 154.498 234.064 154.661 234.525 154.874L234.821 153.942C233.911 153.692 232.973 153.56 232.03 153.549C229.551 153.549 227.975 154.334 227.975 156.488C227.975 158.335 229.074 158.988 231.504 159.169C233.507 159.316 234.064 160.116 234.064 161.114C234.064 162.667 232.833 163.091 231.044 163.091C230.256 163.091 229.108 162.951 228.484 162.716L228.189 163.648C229.124 163.912 230.09 164.05 231.061 164.057C233.523 164.057 235.165 163.255 235.165 161.118C235.165 159.271 234.098 158.405 231.668 158.209Z" fill="#323232"/>
<path d="M244.276 153.811H236.199V154.677H239.713V163.881H240.779V154.677H244.276V153.811Z" fill="#323232"/>
<path d="M247.346 153.811C245.951 157.179 244.703 160.514 243.538 163.886H244.572C244.917 162.824 245.261 161.811 245.622 160.781H250.548C250.958 161.875 251.384 162.922 251.762 163.886H252.944C251.713 161.088 250.285 157.217 249.135 153.811H247.346ZM245.951 159.909C246.575 158.175 247.28 156.426 248.003 154.628H248.445C249.008 156.377 249.627 158.209 250.251 159.909H245.951Z" fill="#323232"/>
<path d="M258.985 159.386C261.217 159.386 261.907 158.143 261.907 156.727C261.907 155.188 261.283 153.816 259.035 153.816H254.519V163.892H255.57V159.516H257.524C258.279 159.516 259.609 161.07 261.217 163.881H262.531C260.988 161.331 259.708 159.631 258.985 159.386ZM255.554 158.601V154.683L259.035 154.667C260.134 154.667 260.742 155.402 260.742 156.71C260.742 157.871 260.134 158.607 258.952 158.607L255.554 158.601Z" fill="#323232"/>
<path d="M262.925 154.677H266.438V163.881H267.505L267.489 154.677H270.986V153.811H262.925V154.677Z" fill="#323232"/>
<path d="M277.273 162.001V153.436H276.337V162.05C276.337 163.112 276.649 163.604 277.256 164.175L277.979 163.57C277.453 163.047 277.289 162.704 277.289 162.001H277.273Z" fill="#323232"/>
<path d="M282.691 156.394C280.442 156.394 279.374 157.234 279.374 160.203C279.374 163.173 280.424 164.094 282.691 164.094C284.958 164.094 286.023 163.194 286.023 160.203C286.023 157.213 284.972 156.394 282.691 156.394ZM282.706 163.227C280.983 163.227 280.424 162.606 280.424 160.235C280.424 157.735 280.986 157.243 282.706 157.26C284.426 157.277 285.005 157.751 285.005 160.235C285.005 162.606 284.431 163.227 282.712 163.227H282.706Z" fill="#323232"/>
<path d="M291.391 157.292C292.005 157.28 292.615 157.398 293.18 157.637L293.492 156.754C292.819 156.531 292.116 156.41 291.407 156.394C289.141 156.394 287.861 157.234 287.861 160.203C287.861 163.173 289.126 164.094 291.407 164.094C292.121 164.083 292.827 163.944 293.492 163.685L293.18 162.819C292.615 163.062 292.007 163.189 291.391 163.194C289.684 163.194 288.895 162.606 288.895 160.235C288.895 157.751 289.684 157.292 291.391 157.292Z" fill="#323232"/>
<path d="M297.416 156.362C296.593 156.368 295.775 156.489 294.986 156.721L295.267 157.603C295.842 157.358 296.672 157.26 297.375 157.26C299.081 157.26 299.542 157.637 299.542 159.435C298.859 159.277 298.159 159.2 297.457 159.205C295.815 159.205 294.55 159.55 294.55 161.625C294.55 163.504 295.422 164.077 297.523 164.077C298.442 164.077 299.69 163.864 300.474 163.504V159.19C300.468 156.983 299.549 156.362 297.416 156.362ZM299.534 162.884C298.9 163.099 298.236 163.21 297.566 163.211C296.039 163.211 295.613 162.998 295.613 161.544C295.613 160.203 296.105 160.039 297.566 160.039C298.227 160.031 298.887 160.097 299.534 160.235V162.884Z" fill="#323232"/>
<path d="M303.62 153.436H302.668V162.05C302.668 163.112 302.98 163.604 303.587 164.175L304.309 163.57C303.784 163.047 303.619 162.704 303.619 162.001L303.62 153.436Z" fill="#323232"/>
<path d="M319.315 158.078H318.346C318.343 159.067 318.046 160.034 317.493 160.857C316.212 159.038 315.49 158.569 314.768 158.486C316.595 158.323 316.918 157.211 316.918 156.018C316.918 154.4 315.966 153.566 313.733 153.566C311.5 153.566 310.549 154.481 310.549 156.1C310.549 157.293 310.63 158.356 312.453 158.52C310.532 158.601 309.842 159.827 309.842 161.2C309.842 163.439 311.09 164.077 313.438 164.077C315.342 164.077 316.146 163.57 317.394 162.377C317.706 162.834 318.034 163.342 318.33 163.881H319.512C318.987 163.015 318.528 162.263 318.067 161.608C318.871 160.578 319.348 159.32 319.315 158.078ZM311.648 156.144C311.648 154.933 312.19 154.443 313.756 154.443C315.321 154.443 315.889 154.95 315.889 156.159C315.889 157.5 315.085 158.057 313.641 158.057C312.196 158.057 311.648 157.49 311.648 156.144ZM313.454 163.205C311.534 163.205 310.975 162.617 310.975 161.081C310.975 159.478 311.829 158.906 313.601 158.906C314.8 158.906 315.753 159.919 316.918 161.62C315.817 162.819 315.161 163.211 313.454 163.211V163.205Z" fill="#323232"/>
<path d="M329.05 159.32H331.692V162.949C331.026 163.108 330.343 163.19 329.657 163.194C327.095 163.194 326.144 162.459 326.144 158.78C326.144 155.101 327.095 154.515 329.657 154.515C330.444 154.515 331.528 154.661 332.136 154.89L332.464 153.974C331.544 153.723 330.595 153.592 329.64 153.583C326.505 153.583 325.011 154.645 325.011 158.76C325.011 162.876 326.505 164.089 329.64 164.089C330.544 164.089 331.938 164.008 332.732 163.762V158.486H329.056L329.05 159.32Z" fill="#323232"/>
<path d="M339.424 153.566C336.289 153.566 334.844 154.694 334.844 158.797C334.844 162.966 336.272 164.094 339.424 164.077C342.577 164.06 344.021 162.966 344.021 158.797C344.021 154.694 342.579 153.566 339.424 153.566ZM339.408 163.179C336.847 163.179 335.96 162.339 335.96 158.831C335.96 155.136 336.847 154.449 339.408 154.449C342.002 154.449 342.905 155.136 342.905 158.831C342.905 162.344 342.002 163.179 339.408 163.179Z" fill="#323232"/>
<path d="M356.267 156.95C355.479 156.59 354.199 156.377 353.316 156.377C351.051 156.377 350 157.217 350 160.187C350 163.156 351.034 164.077 353.316 164.077C354.366 164.077 354.973 163.766 355.334 163.472C355.334 165.418 354.366 165.909 352.664 165.909C352.139 165.909 351.089 165.728 350.58 165.489L350.299 166.387C350.841 166.617 352.039 166.807 352.663 166.807C354.945 166.807 356.291 166.039 356.291 163.342H356.274L356.267 156.95ZM355.348 162.149C355.348 162.834 354.412 163.194 353.329 163.194C351.606 163.194 351.048 162.606 351.048 160.236C351.048 157.735 351.61 157.277 353.329 157.277C354.014 157.272 354.696 157.377 355.348 157.588V162.149Z" fill="#323232"/>
<path d="M359.444 153.436H358.491V162.05C358.491 163.112 358.803 163.604 359.41 164.175L360.132 163.57C359.608 163.047 359.444 162.704 359.444 162.001V153.436Z" fill="#323232"/>
<path d="M364.837 156.394C362.572 156.394 361.521 157.234 361.521 160.203C361.521 163.173 362.572 164.094 364.837 164.094C367.103 164.094 368.169 163.194 368.169 160.203C368.169 157.213 367.12 156.394 364.837 156.394ZM364.854 163.227C363.13 163.227 362.572 162.606 362.572 160.235C362.572 157.735 363.134 157.243 364.854 157.26C366.574 157.277 367.152 157.751 367.152 160.235C367.152 162.606 366.577 163.227 364.854 163.227Z" fill="#323232"/>
<path d="M373.177 156.394C372.125 156.394 371.518 156.688 371.157 156.983V153.451H370.206V163.505C370.993 163.864 372.273 164.077 373.157 164.077C375.422 164.077 376.473 163.237 376.473 160.252C376.473 157.267 375.442 156.377 373.177 156.394ZM373.16 163.194C372.474 163.2 371.792 163.095 371.14 162.885V158.307C371.14 157.637 372.076 157.277 373.16 157.277C374.884 157.277 375.442 157.865 375.442 160.236C375.442 162.704 374.867 163.194 373.16 163.194Z" fill="#323232"/>
<path d="M381.105 156.362C380.283 156.368 379.465 156.489 378.676 156.721L378.957 157.603C379.532 157.358 380.362 157.26 381.058 157.26C382.765 157.26 383.225 157.637 383.225 159.435C382.541 159.277 381.841 159.2 381.139 159.205C379.498 159.205 378.234 159.55 378.234 161.625C378.234 163.504 379.104 164.077 381.205 164.077C382.124 164.077 383.372 163.864 384.157 163.504V159.19C384.159 156.983 383.24 156.362 381.105 156.362ZM383.223 162.884C382.59 163.1 381.925 163.21 381.256 163.211C379.73 163.211 379.302 162.998 379.302 161.544C379.302 160.203 379.794 160.039 381.256 160.039C381.917 160.031 382.577 160.097 383.223 160.235V162.884Z" fill="#323232"/>
<path d="M387.311 162.001V153.436H386.359V162.05C386.359 163.112 386.671 163.604 387.278 164.175L388 163.57C387.475 163.047 387.311 162.704 387.311 162.001Z" fill="#323232"/>
<defs>
<radialGradient id="paint0_radial_204_36" cx="0" cy="0" r="1" gradientUnits="userSpaceOnUse" gradientTransform="translate(140.5 140.5) rotate(84.5546) scale(141.137)">
<stop stop-color="#7DBA28"/>
<stop offset="1" stop-color="#7DBA28" stop-opacity="0"/>
</radialGradient>
<linearGradient id="paint1_linear_204_36" x1="169.44" y1="159.22" x2="208.743" y2="119.75" gradientUnits="userSpaceOnUse">
<stop stop-color="#A9D906"/>
<stop offset="1" stop-color="#93CF07"/>
</linearGradient>
<linearGradient id="paint2_linear_204_36" x1="61.411" y1="186.351" x2="142.513" y2="104.905" gradientUnits="userSpaceOnUse">
<stop stop-color="#86C804"/>
<stop offset="1" stop-color="#B3DF07"/>
</linearGradient>
<linearGradient id="paint3_linear_204_36" x1="61.411" y1="186.351" x2="142.513" y2="104.905" gradientUnits="userSpaceOnUse">
<stop stop-color="#86C804"/>
<stop offset="1" stop-color="#B3DF07"/>
</linearGradient>
<linearGradient id="paint4_linear_204_36" x1="94.0951" y1="187.583" x2="139.16" y2="142.327" gradientUnits="userSpaceOnUse">
<stop stop-color="#83C503"/>
<stop offset="1" stop-color="#9AD203"/>
</linearGradient>
<linearGradient id="paint5_linear_204_36" x1="10160.3" y1="39495.3" x2="42018.9" y2="4552.56" gradientUnits="userSpaceOnUse">
<stop stop-color="#83C503"/>
<stop offset="1" stop-color="#9AD203"/>
</linearGradient>
<linearGradient id="paint6_linear_204_36" x1="94.0951" y1="187.583" x2="139.16" y2="142.327" gradientUnits="userSpaceOnUse">
<stop stop-color="#83C503"/>
<stop offset="1" stop-color="#9AD203"/>
</linearGradient>
<linearGradient id="paint7_linear_204_36" x1="10160.3" y1="39495.3" x2="42018.9" y2="4552.56" gradientUnits="userSpaceOnUse">
<stop stop-color="#83C503"/>
<stop offset="1" stop-color="#9AD203"/>
</linearGradient>
<linearGradient id="paint8_linear_204_36" x1="137.027" y1="121.178" x2="166.118" y2="91.9624" gradientUnits="userSpaceOnUse">
<stop stop-color="#B0DB03"/>
<stop offset="1" stop-color="#9BD302"/>
</linearGradient>
<linearGradient id="paint9_linear_204_36" x1="137.027" y1="121.178" x2="166.118" y2="91.9624" gradientUnits="userSpaceOnUse">
<stop stop-color="#B0DB03"/>
<stop offset="1" stop-color="#9BD302"/>
</linearGradient>
<linearGradient id="paint10_linear_204_36" x1="133.247" y1="186.312" x2="134.864" y2="184.687" gradientUnits="userSpaceOnUse">
<stop stop-color="#77C205"/>
<stop offset="1" stop-color="#8CCD05"/>
</linearGradient>
<linearGradient id="paint11_linear_204_36" x1="22667.2" y1="43925.7" x2="50286" y2="21268.4" gradientUnits="userSpaceOnUse">
<stop stop-color="#77C205"/>
<stop offset="1" stop-color="#8CCD05"/>
</linearGradient>
<linearGradient id="paint12_linear_204_36" x1="133.247" y1="186.312" x2="134.864" y2="184.687" gradientUnits="userSpaceOnUse">
<stop stop-color="#77C205"/>
<stop offset="1" stop-color="#8CCD05"/>
</linearGradient>
<linearGradient id="paint13_linear_204_36" x1="22667.2" y1="43925.7" x2="50286" y2="21268.4" gradientUnits="userSpaceOnUse">
<stop stop-color="#77C205"/>
<stop offset="1" stop-color="#8CCD05"/>
</linearGradient>
<linearGradient id="paint14_linear_204_36" x1="112.417" y1="105.867" x2="120.912" y2="97.3352" gradientUnits="userSpaceOnUse">
<stop stop-color="#C3EA09"/>
<stop offset="1" stop-color="#A1D808"/>
</linearGradient>
<linearGradient id="paint15_linear_204_36" x1="112.417" y1="105.867" x2="120.912" y2="97.3352" gradientUnits="userSpaceOnUse">
<stop stop-color="#C3EA09"/>
<stop offset="1" stop-color="#A1D808"/>
</linearGradient>
<linearGradient id="paint16_linear_204_36" x1="10711.9" y1="4305.77" x2="14274.4" y2="-5602.27" gradientUnits="userSpaceOnUse">
<stop stop-color="#A9D906"/>
<stop offset="1" stop-color="#93CF07"/>
</linearGradient>
<linearGradient id="paint17_linear_204_36" x1="10711.9" y1="4305.77" x2="14274.4" y2="-5602.27" gradientUnits="userSpaceOnUse">
<stop stop-color="#A9D906"/>
<stop offset="1" stop-color="#93CF07"/>
</linearGradient>
</defs>
</svg>
